<?xml version="1.0" standalone="no"?>
<!DOCTYPE svg PUBLIC "-//W3C//DTD SVG 20010904//EN"
 "http://www.w3.org/TR/2001/REC-SVG-20010904/DTD/svg10.dtd">
<svg version="1.0" xmlns="http://www.w3.org/2000/svg"
 width="725.000000pt" height="725.000000pt" viewBox="0 0 725.000000 725.000000"
 preserveAspectRatio="xMidYMid meet">
<metadata>
Created by potrace 1.11, written by Peter Selinger 2001-2013
</metadata>
<g transform="translate(0.000000,725.000000) scale(0.100000,-0.100000)"
fill="#000000" stroke="none">
<path d="M2492 3867 c-34 -35 -59 -66 -56 -70 4 -4 1 -7 -7 -7 -22 0 -84 -67
-67 -72 7 -3 23 -1 36 3 24 9 23 3 -2 -31 -7 -8 -20 -40 -31 -70 -10 -30 -35
-91 -56 -136 -21 -44 -38 -89 -38 -100 -1 -10 -4 -47 -7 -82 -5 -51 -3 -66 10
-80 9 -9 25 -28 36 -42 15 -18 18 -20 13 -6 -4 13 -3 17 5 12 7 -4 12 -2 12 3
0 6 -7 11 -15 11 -23 0 -30 29 -10 44 15 11 15 13 1 25 -23 20 -20 76 5 100
15 14 20 28 17 45 -3 14 -1 26 3 26 5 0 9 6 9 14 0 7 7 19 15 26 8 7 15 20 15
30 0 9 9 29 20 43 11 14 20 33 20 44 0 32 71 162 86 156 8 -3 14 -15 14 -27 1
-17 3 -15 15 11 7 17 30 58 50 90 19 32 27 48 17 36 -11 -12 -23 -19 -27 -15
-5 4 -6 2 -2 -3 9 -17 -9 -38 -35 -42 -17 -2 -19 -1 -8 6 8 5 18 7 22 5 4 -3
8 3 8 12 0 14 -3 15 -12 6 -16 -16 -31 -15 -22 1 3 6 -7 -3 -24 -22 -17 -19
-28 -40 -25 -45 3 -6 -3 -3 -13 7 -18 17 -18 18 4 33 14 10 21 22 18 31 -4 11
-2 13 9 10 8 -4 17 -1 21 5 4 7 3 8 -4 4 -23 -14 -12 8 20 41 18 18 30 33 27
33 -2 0 -33 -28 -67 -63z"/>
<path d="M2579 3893 c-13 -16 -12 -17 4 -4 16 13 21 21 13 21 -2 0 -10 -8 -17
-17z"/>
<path d="M2535 3860 c-3 -6 1 -7 9 -4 18 7 21 14 7 14 -6 0 -13 -4 -16 -10z"/>
<path d="M2787 3783 c-9 -8 -9 -135 -1 -183 5 -27 13 -39 35 -49 47 -21 59
-39 59 -87 0 -28 4 -43 10 -39 6 3 10 -1 10 -9 0 -10 -6 -13 -16 -9 -14 5 -16
-3 -14 -53 1 -32 2 -65 1 -71 -2 -27 -29 -11 -58 36 l-31 49 18 51 c11 33 13
51 6 51 -6 0 -6 4 2 9 10 6 11 13 1 34 -16 35 -25 34 -32 -3 -4 -16 -12 -30
-19 -30 -22 0 -90 -62 -103 -95 -22 -52 -41 -233 -27 -255 8 -14 9 -33 3 -67
-5 -27 -12 -106 -16 -177 -6 -124 -5 -129 16 -153 20 -20 24 -39 30 -126 4
-56 8 -103 8 -104 1 -1 10 -7 22 -13 16 -9 26 -8 44 4 14 9 26 16 29 16 2 0 7
-21 11 -46 3 -25 15 -54 26 -65 12 -12 27 -43 35 -70 8 -27 19 -49 24 -49 6 0
10 -12 10 -26 0 -17 14 -40 43 -68 23 -23 50 -57 59 -74 9 -18 23 -32 31 -32
8 0 41 -16 73 -35 68 -41 106 -54 112 -37 2 7 13 12 24 12 24 0 19 24 -7 29
-44 8 -117 65 -150 117 -19 30 -39 54 -45 54 -5 0 -10 5 -10 11 0 5 -11 27
-25 47 -14 20 -25 43 -25 52 -1 8 -14 31 -30 50 -17 19 -30 41 -30 49 0 8 -7
22 -16 32 -28 31 -12 39 35 19 52 -24 91 -26 91 -5 0 16 -85 104 -138 143 -44
32 -80 102 -87 170 -3 31 -8 89 -12 127 -13 126 -7 201 18 241 24 40 74 75 95
67 7 -2 20 -39 30 -81 28 -129 92 -326 125 -388 43 -79 114 -169 168 -210 44
-34 131 -66 271 -100 55 -13 84 -26 112 -52 40 -36 38 -37 54 16 2 7 14 12 26
10 17 -2 24 -11 26 -30 4 -33 13 -35 29 -8 18 28 63 49 167 75 166 42 204 61
276 135 85 88 127 162 179 314 39 113 41 127 28 141 -20 20 -28 19 -20 -2 6
-17 6 -17 -11 0 -18 17 -19 17 -31 0 -13 -17 -13 -17 -12 1 2 17 -5 19 -60 20
-43 1 -67 6 -80 19 -25 22 -40 22 -22 0 12 -15 12 -16 -3 -10 -10 4 -18 2 -18
-4 0 -7 10 -9 24 -5 14 3 28 1 31 -4 4 -6 10 -8 15 -5 4 3 10 -2 14 -10 6 -18
5 -18 -29 -5 -23 9 -25 8 -15 -10 6 -11 7 -37 3 -62 -4 -24 -6 -47 -5 -51 1
-5 -2 -5 -8 -2 -7 4 -14 -2 -16 -13 -5 -18 -7 -18 -33 7 -16 14 -33 34 -38 45
-9 17 -11 16 -17 -9 -4 -17 -12 -25 -20 -22 -8 3 -18 1 -24 -5 -8 -8 -9 -4 -5
12 4 15 2 21 -4 17 -24 -15 -31 84 -8 103 9 7 14 19 11 26 -3 7 2 18 10 24 13
11 18 7 15 -12 0 -4 6 -5 13 -2 12 5 12 9 -2 23 -13 13 -22 15 -37 8 -18 -8
-17 -7 3 12 12 12 22 26 22 31 0 13 -37 32 -58 29 -38 -3 -45 0 -32 16 10 12
9 16 -4 21 -9 3 -16 16 -17 28 0 21 0 21 -9 -1 -5 -13 -14 -23 -20 -23 -5 0
-10 -5 -10 -10 0 -7 6 -7 19 0 14 7 22 7 27 -2 4 -6 3 -8 -2 -5 -6 3 -16 2
-24 -3 -9 -5 -22 -2 -38 11 -14 10 -28 19 -32 19 -12 0 -19 -64 -8 -77 6 -7 5
-14 -3 -18 -8 -6 -8 -10 2 -16 10 -6 10 -13 2 -32 -12 -26 -8 -38 22 -56 19
-12 19 -12 -3 -7 -18 3 -22 1 -18 -10 3 -8 1 -14 -5 -14 -6 0 -8 -4 -5 -8 9
-15 -28 -10 -47 6 -16 15 -17 14 -12 -4 6 -16 3 -15 -14 5 -16 18 -21 20 -21
7 0 -9 5 -16 10 -16 6 0 10 -5 10 -11 0 -5 -4 -7 -10 -4 -6 4 -9 -12 -8 -42 2
-70 -13 -153 -27 -153 -10 0 -13 -41 -13 -166 0 -91 -3 -168 -6 -172 -3 -3 -6
152 -5 344 1 246 4 339 11 315 5 -19 8 -97 6 -173 -2 -76 0 -138 4 -138 18 0
13 239 -7 373 -6 42 -5 47 11 47 12 0 15 3 7 8 -6 4 -16 23 -21 42 -8 27 -10
30 -11 11 -1 -21 -3 -22 -18 -10 -17 13 -17 13 -1 -7 14 -16 15 -23 5 -34 -10
-10 -9 -11 2 -5 11 7 12 -5 5 -71 -5 -43 -8 -143 -6 -222 1 -95 -1 -141 -8
-137 -5 3 -10 21 -10 38 0 37 -14 65 -24 49 -3 -6 -1 -14 5 -18 8 -4 7 -9 -2
-15 -20 -13 -31 -11 -23 3 5 7 9 21 9 32 2 18 1 18 -12 1 -7 -11 -13 -40 -13
-66 0 -56 -17 -76 -50 -59 -12 7 -32 10 -44 8 -21 -4 -22 -1 -21 78 0 46 5 88
10 93 10 10 42 18 73 20 7 1 10 6 7 11 -10 16 5 12 36 -11 33 -23 37 -39 12
-39 -15 0 -16 -2 -3 -10 24 -16 30 -12 30 21 0 17 -4 28 -10 24 -5 -3 -10 -1
-10 4 0 6 5 11 10 11 6 0 10 5 10 11 0 5 -4 7 -10 4 -10 -6 -14 6 -11 35 2 13
1 13 -8 0 -5 -8 -8 -17 -6 -20 2 -3 -12 -6 -30 -7 -28 -2 -32 0 -31 20 1 17
-4 21 -19 19 -17 -2 -16 0 7 18 18 14 24 27 21 40 -3 11 -9 17 -14 14 -5 -3
-9 1 -9 10 0 8 6 17 13 19 9 4 8 8 -3 16 -14 10 -7 16 14 12 5 -1 5 6 1 16
-17 40 -16 59 4 77 12 11 21 16 21 12 0 -8 15 7 39 37 19 25 6 21 -20 -5 -16
-17 -20 -18 -16 -6 4 12 2 15 -8 11 -8 -3 -12 -10 -8 -16 4 -6 1 -7 -6 -3 -9
6 -9 12 3 25 29 32 17 46 -14 16 -22 -21 -27 -31 -18 -37 10 -6 10 -8 0 -8 -8
0 -16 9 -19 20 -8 31 -31 20 -56 -25 -23 -41 -47 -66 -58 -59 -14 8 -16 99 -3
136 7 21 11 52 9 68 -3 25 1 33 18 40 19 8 18 9 -9 8 -26 -2 -30 -6 -28 -26 2
-19 0 -21 -12 -11 -10 8 -14 9 -14 0 0 -6 7 -14 15 -17 17 -7 14 -46 -4 -52
-18 -6 -43 -60 -31 -67 16 -10 12 -28 -5 -21 -9 3 -15 0 -15 -10 0 -10 6 -14
15 -10 12 4 14 0 8 -22 -4 -15 -6 -36 -5 -47 0 -11 -4 -23 -11 -27 -9 -6 -9
-8 1 -8 19 0 14 -19 -13 -44 -25 -23 -38 -86 -22 -103 7 -6 11 35 8 70 -1 9 3
17 9 17 6 0 9 -4 6 -9 -4 -5 2 -8 11 -7 10 2 27 -8 39 -21 28 -33 20 -88 -19
-117 -24 -18 -29 -19 -37 -6 -5 8 -10 25 -10 38 0 12 -5 22 -11 22 -5 0 -8 -4
-4 -10 11 -17 -6 -57 -30 -68 -26 -12 -42 1 -62 50 -17 38 3 85 40 98 16 5 34
7 41 3 6 -4 5 1 -3 11 -8 10 -23 15 -33 12 -16 -4 -17 -2 -7 10 10 12 9 13 -5
8 -12 -4 -15 -2 -10 9 3 8 2 17 -3 20 -5 3 -10 -6 -11 -21 -3 -31 -17 -42 -57
-41 -16 0 -40 -2 -52 -6 -19 -6 -25 -2 -33 20 -8 22 -7 31 5 45 8 9 12 20 8
24 -5 4 -3 7 2 5 6 -1 23 3 39 10 23 9 33 9 51 -3 26 -17 35 -12 35 18 0 17
-2 18 -10 6 -7 -12 -10 -12 -10 -1 0 7 -6 11 -14 8 -7 -3 -17 -2 -22 3 -5 4
-26 13 -46 20 -40 12 -52 42 -23 54 8 3 15 1 15 -3 0 -5 9 -7 20 -4 11 3 20
10 20 15 0 5 -9 6 -20 3 -12 -4 -20 -2 -20 5 0 8 -6 8 -21 -1 -15 -8 -24 -8
-32 0 -8 8 -7 11 5 11 21 0 30 24 15 41 -8 8 -5 8 7 -1 17 -13 19 -13 14 0 -6
19 -38 26 -38 8 0 -7 -14 -21 -30 -30 -35 -20 -40 -15 -42 42 -2 68 1 77 32
90 32 13 57 39 26 27 -14 -6 -15 -3 -5 14 10 19 9 20 -12 9 -19 -11 -21 -10
-16 3 4 11 2 14 -8 10 -8 -3 -12 -10 -9 -17 3 -6 -2 -2 -10 8 -9 11 -17 31
-18 45 0 14 -2 31 -3 36 -2 6 -3 17 -4 25 -1 13 -2 13 -11 0 -8 -12 -10 -11
-10 8 0 12 4 22 8 22 5 0 9 7 9 15 0 10 -4 12 -12 5 -13 -11 -14 27 -1 50 5 8
-5 2 -22 -14 l-31 -29 -7 27 c-3 14 -10 23 -16 20 -5 -3 -4 -12 3 -20 6 -8 9
-17 5 -21 -3 -3 -6 -1 -6 5 0 7 -6 12 -14 12 -10 0 -14 13 -13 50 1 28 2 50 1
50 0 0 -4 -3 -7 -7z m-41 -382 c-24 -45 -46 -114 -46 -142 0 -15 -7 -32 -15
-39 -12 -10 -14 -5 -12 38 1 27 5 48 10 45 4 -2 7 5 7 17 0 21 23 73 42 98 19
23 28 12 14 -17z m744 -135 c0 -3 -4 -8 -10 -11 -5 -3 -10 -1 -10 4 0 6 5 11
10 11 6 0 10 -2 10 -4z m-410 -78 c0 -6 -6 -5 -15 2 -8 7 -15 14 -15 16 0 2 7
1 15 -2 8 -4 15 -11 15 -16z m247 0 c-3 -8 -6 -5 -6 6 -1 11 2 17 5 13 3 -3 4
-12 1 -19z m673 -29 c0 -14 -17 -10 -23 5 -4 10 -1 13 9 9 7 -3 14 -9 14 -14z
m-1305 -49 c-13 -15 -22 -17 -29 -10 -12 12 8 30 33 30 11 0 10 -5 -4 -20z
m1155 -10 c0 -5 -4 -10 -10 -10 -5 0 -8 -6 -6 -12 1 -7 1 -10 -1 -6 -2 4 -12
4 -21 1 -14 -5 -13 -2 3 15 22 23 35 27 35 12z m385 -50 c3 -5 2 -10 -4 -10
-5 0 -13 5 -16 10 -3 6 -2 10 4 10 5 0 13 -4 16 -10z m-50 -59 c-2 -14 2 -17
19 -16 14 2 23 -3 23 -11 0 -8 -6 -13 -14 -10 -7 3 -13 1 -13 -4 0 -6 -8 -5
-18 1 -19 12 -19 59 -1 59 4 0 6 -8 4 -19z m72 -1 c-1 -11 -5 -20 -9 -20 -10
0 -10 4 -2 24 8 22 13 20 11 -4z m-1113 -16 c3 -8 2 -12 -4 -9 -6 3 -10 10
-10 16 0 14 7 11 14 -7z m630 -5 c-3 -5 3 -9 13 -10 36 -1 55 -8 74 -25 10 -9
17 -19 14 -22 -2 -3 0 -13 5 -23 7 -12 7 -20 0 -24 -13 -8 -13 -56 0 -89 9
-24 8 -25 -15 -14 -16 7 -32 7 -54 0 -39 -14 -52 2 -59 69 -2 27 -9 52 -15 56
-6 4 -7 1 -2 -8 8 -12 6 -12 -8 0 -20 16 -12 35 12 27 15 -6 15 -5 0 7 -9 6
-19 21 -23 33 -5 17 -2 20 16 20 13 -1 22 4 21 11 -2 7 4 10 12 7 8 -4 12 -10
9 -15z m-651 -3 c4 -10 1 -13 -8 -9 -8 3 -12 9 -9 14 7 12 11 11 17 -5z m-50
-28 c25 -24 54 -109 42 -127 -3 -6 -12 -11 -18 -11 -13 1 -48 44 -51 65 -1 7
-8 20 -15 29 -14 17 -8 66 9 66 5 0 20 -10 33 -22z m1217 -6 c0 -33 -25 -89
-51 -114 -42 -41 -56 -7 -28 67 11 30 25 55 30 55 6 0 7 5 4 10 -4 6 5 10 19
10 22 0 26 -5 26 -28z m-556 -105 c-2 -11 1 -24 7 -28 8 -5 8 -8 0 -13 -6 -4
-11 -2 -11 4 0 6 -3 9 -7 7 -5 -3 -8 12 -9 34 0 29 3 36 12 28 7 -6 11 -20 8
-32z m276 39 c0 -3 -4 -8 -10 -11 -5 -3 -10 -1 -10 4 0 6 5 11 10 11 6 0 10
-2 10 -4z m-1280 -70 c0 -25 -5 -48 -10 -51 -7 -4 -10 12 -9 44 3 63 19 68 19
7z m868 25 c11 -6 10 -10 -4 -15 -16 -6 -16 -8 1 -26 18 -20 18 -21 -1 -34
-10 -8 -21 -12 -24 -10 -2 3 2 9 10 14 9 6 10 10 3 10 -19 0 -26 -20 -12 -38
7 -9 10 -14 5 -10 -5 4 -16 0 -24 -9 -11 -10 -17 -12 -20 -4 -2 6 -11 11 -20
11 -15 0 -15 -2 -2 -10 8 -5 10 -10 4 -10 -18 0 -24 12 -13 31 12 23 44 26 35
4 -3 -8 -1 -15 4 -15 6 0 10 11 10 24 0 16 7 27 21 31 12 4 17 10 12 14 -10 6
-13 51 -3 51 3 0 11 -4 18 -9z m347 -1 c3 -6 -1 -7 -9 -4 -18 7 -21 14 -7 14
6 0 13 -4 16 -10z m-209 -58 c-3 -3 -1 -11 4 -17 8 -9 6 -15 -6 -19 -9 -4 -19
-4 -22 -1 -3 3 1 5 9 5 10 1 8 5 -5 15 -11 8 -14 15 -7 15 7 0 9 4 6 10 -3 6
1 7 10 4 9 -4 13 -9 11 -12z m189 -2 c-3 -5 -12 -10 -18 -10 -7 0 -6 4 3 10
19 12 23 12 15 0z m-1234 -56 l-9 -39 -1 50 c-1 33 2 46 9 39 7 -7 7 -24 1
-50z m1116 39 c16 4 22 4 16 1 -9 -4 -10 -11 -3 -24 7 -13 5 -21 -7 -31 -15
-12 -16 -12 -10 4 3 9 2 17 -4 17 -6 0 -8 4 -5 8 3 5 -1 9 -9 9 -18 0 -19 -9
-2 -26 6 -8 8 -12 2 -9 -5 3 -18 8 -29 12 -15 5 -16 9 -6 21 6 8 8 20 4 27 -6
10 -4 10 9 -1 10 -8 28 -11 44 -8z m-563 -27 c17 -37 21 -86 7 -86 -18 0 -90
65 -90 82 -1 18 24 37 50 38 9 0 24 -15 33 -34z m613 10 c-7 -15 -14 -20 -19
-13 -5 8 15 34 29 37 0 0 -4 -11 -10 -24z m291 12 c22 -22 12 -42 -37 -80 -27
-21 -52 -38 -56 -38 -14 0 3 91 20 110 20 22 55 26 73 8z m-1423 -98 c4 -47 9
-88 11 -92 2 -4 0 -9 -5 -12 -5 -4 -12 23 -16 61 -3 38 -8 80 -10 94 -3 23 3
45 11 37 1 -2 5 -41 9 -88z m652 84 c-3 -3 -12 -4 -19 -1 -8 3 -5 6 6 6 11 1
17 -2 13 -5z m108 -4 c-3 -5 -11 -10 -16 -10 -6 0 -7 5 -4 10 3 6 11 10 16 10
6 0 7 -4 4 -10z m472 4 c-3 -3 -12 -4 -19 -1 -8 3 -5 6 6 6 11 1 17 -2 13 -5z
m-207 -34 c0 -5 -4 -10 -10 -10 -5 0 -10 5 -10 10 0 6 5 10 10 10 6 0 10 -4
10 -10z m16 -15 c-3 -8 -1 -15 5 -15 6 0 7 -5 4 -10 -5 -8 -11 -8 -20 0 -8 7
-15 7 -19 1 -3 -5 -1 -12 4 -14 6 -3 5 -4 -2 -3 -23 5 -22 36 1 36 12 0 21 5
21 10 0 6 3 10 6 10 3 0 4 -7 0 -15z m-188 -4 c14 -1 16 -27 3 -35 -13 -8 -41
4 -41 17 0 7 4 7 12 -1 15 -15 28 -15 28 -1 0 5 -4 8 -9 4 -5 -3 -12 -1 -16 5
-4 7 -12 7 -25 0 -26 -14 -35 -12 -21 4 6 7 21 12 34 11 12 -1 28 -3 35 -4z
m232 -11 c0 -5 -4 -12 -10 -15 -5 -3 -10 -4 -10 -1 0 2 -3 12 -6 20 -5 12 -2
15 10 10 9 -3 16 -10 16 -14z m-304 -32 c4 -13 12 -18 24 -15 23 6 34 -18 19
-41 -9 -14 -10 -14 -6 6 7 30 -14 28 -41 -3 -29 -33 -72 -33 -148 1 -56 25
-58 27 -34 36 14 5 39 8 56 6 21 -1 41 6 64 24 37 29 53 25 66 -14z m369 13
c24 -24 35 -28 66 -24 20 3 45 1 55 -5 17 -9 12 -14 -36 -36 -70 -33 -110 -33
-148 -1 -37 31 -39 31 -45 3 -3 -15 -4 -12 -4 8 1 25 5 30 19 26 10 -2 18 0
18 5 0 11 32 53 41 53 3 0 19 -13 34 -29z m-1176 -54 c1 -23 -3 -36 -9 -32 -5
3 -10 30 -9 58 0 38 3 47 9 32 5 -11 9 -37 9 -58z m917 38 c1 -8 -2 -13 -7 -9
-5 3 -9 12 -9 21 0 19 13 9 16 -12z m100 -4 c-12 -19 -24 -12 -19 10 4 13 9
17 15 11 6 -6 7 -15 4 -21z m34 -15 c0 -3 -4 -8 -10 -11 -5 -3 -10 -1 -10 4 0
6 5 11 10 11 6 0 10 -2 10 -4z m-860 -66 c0 -5 -7 -10 -15 -10 -8 0 -15 5 -15
10 0 6 7 10 15 10 8 0 15 -4 15 -10z m716 -46 c5 -34 3 -48 -7 -54 -13 -9 -63
11 -74 30 -7 11 47 70 64 70 6 0 13 -21 17 -46z m162 17 l30 -29 -21 -20 c-49
-43 -73 -34 -68 27 4 60 14 64 59 22z m-286 -17 c21 -11 27 -19 20 -26 -14
-14 -53 -3 -83 22 l-24 19 28 1 c15 0 42 -7 59 -16z m428 6 c0 -15 -66 -44
-84 -37 -24 9 -19 22 12 34 35 14 72 16 72 3z m-1109 -46 c5 -15 8 -29 5 -31
-2 -2 -8 10 -14 26 -13 38 -5 41 9 5z"/>
<path d="M2851 3744 c0 -11 3 -14 6 -6 3 7 2 16 -1 19 -3 4 -6 -2 -5 -13z"/>
<path d="M2992 3548 c-17 -17 -15 -29 3 -22 8 4 13 10 10 14 -3 5 1 11 7 13 7
3 8 6 3 6 -6 1 -16 -4 -23 -11z"/>
<path d="M3288 3553 c7 -3 16 -2 19 1 4 3 -2 6 -13 5 -11 0 -14 -3 -6 -6z"/>
<path d="M3342 3495 c3 -3 16 -8 28 -10 12 -2 20 -1 16 2 -4 4 -16 8 -28 10
-12 2 -19 1 -16 -2z"/>
<path d="M3325 3470 c-3 -5 -1 -10 4 -10 6 0 11 5 11 10 0 6 -2 10 -4 10 -3 0
-8 -4 -11 -10z"/>
<path d="M3138 3453 c7 -3 16 -2 19 1 4 3 -2 6 -13 5 -11 0 -14 -3 -6 -6z"/>
<path d="M2980 3440 c0 -5 7 -10 15 -10 8 0 15 5 15 10 0 6 -7 10 -15 10 -8 0
-15 -4 -15 -10z"/>
<path d="M3297 3410 c-3 -11 -1 -20 5 -20 5 0 6 -9 3 -21 -6 -18 -5 -19 13
-10 21 11 23 42 4 49 -7 2 -10 8 -6 13 3 5 1 9 -4 9 -5 0 -12 -9 -15 -20z"/>
<path d="M3070 3411 c0 -10 19 -25 25 -20 1 2 -3 10 -11 17 -8 7 -14 8 -14 3z"/>
<path d="M3008 3403 c10 -4 10 -8 1 -19 -15 -18 -2 -18 16 0 12 12 12 15 -1
20 -9 3 -19 6 -22 5 -4 0 -1 -3 6 -6z"/>
<path d="M3095 3371 c-11 -5 -23 -7 -27 -4 -5 2 -8 -1 -8 -6 0 -6 5 -11 10
-11 6 0 10 -4 10 -10 0 -5 -6 -10 -14 -10 -8 0 -18 -5 -22 -12 -5 -8 -2 -9 9
-5 10 4 17 1 18 -6 0 -7 4 -1 10 11 5 13 7 28 3 33 -3 5 0 9 6 9 6 0 15 -10
20 -22 7 -20 8 -19 7 9 -1 18 -2 33 -2 32 0 0 -9 -4 -20 -8z"/>
<path d="M3257 3333 c7 -2 9 -11 6 -19 -8 -20 14 -17 26 4 7 14 5 17 -17 18
-15 1 -22 -1 -15 -3z"/>
<path d="M3578 3333 c7 -3 16 -2 19 1 4 3 -2 6 -13 5 -11 0 -14 -3 -6 -6z"/>
<path d="M3151 3308 c-1 -11 -9 -18 -21 -18 -13 0 -17 -5 -14 -14 3 -9 -3 -17
-15 -21 -11 -3 -18 -12 -15 -20 6 -15 44 -27 44 -13 0 5 6 6 13 2 6 -4 4 2 -6
13 -16 19 -16 22 -3 36 9 8 27 14 41 13 20 -3 23 -1 14 10 -6 8 -15 12 -19 9
-5 -3 -11 1 -13 7 -3 8 -6 6 -6 -4z m-31 -68 c0 -5 -4 -10 -10 -10 -5 0 -10 5
-10 10 0 6 5 10 10 10 6 0 10 -4 10 -10z"/>
<path d="M3841 3317 c2 -1 12 -9 22 -16 15 -12 17 -12 11 3 -3 9 -13 16 -22
16 -8 0 -13 -1 -11 -3z"/>
<path d="M3259 3273 c-13 -16 -12 -17 4 -4 16 13 21 21 13 21 -2 0 -10 -8 -17
-17z"/>
<path d="M3716 3277 c3 -10 9 -15 12 -12 3 3 0 11 -7 18 -10 9 -11 8 -5 -6z"/>
<path d="M3747 3275 c3 -8 9 -12 14 -9 12 7 11 11 -5 17 -10 4 -13 1 -9 -8z"/>
<path d="M3804 3265 c-16 -13 -16 -14 -1 -9 9 3 17 2 17 -4 0 -14 27 -23 45
-15 14 5 14 8 -1 24 -21 23 -34 24 -60 4z m54 -14 c3 -8 -1 -12 -9 -9 -7 2
-15 10 -17 17 -3 8 1 12 9 9 7 -2 15 -10 17 -17z"/>
<path d="M3580 3261 c0 -6 4 -13 10 -16 6 -3 7 1 4 9 -7 18 -14 21 -14 7z"/>
<path d="M3042 3248 c5 -15 28 -23 28 -10 0 5 -7 13 -16 16 -10 4 -14 1 -12
-6z"/>
<path d="M3155 3251 c-3 -5 -2 -12 3 -15 5 -3 9 1 9 9 0 17 -3 19 -12 6z"/>
<path d="M3269 3258 c0 -2 -2 -22 -4 -45 -3 -44 9 -59 18 -23 3 11 1 18 -4 15
-5 -4 -6 8 -3 25 4 16 4 30 0 30 -3 0 -6 -1 -7 -2z"/>
<path d="M3983 3242 c2 -12 6 -24 10 -28 3 -4 4 4 2 16 -2 12 -7 25 -10 28 -3
3 -4 -4 -2 -16z"/>
<path d="M3180 3220 c0 -5 5 -10 11 -10 5 0 7 5 4 10 -3 6 -8 10 -11 10 -2 0
-4 -4 -4 -10z"/>
<path d="M3226 3191 c2 -20 3 -42 3 -48 1 -7 6 -13 11 -13 7 0 8 6 1 17 -5 9
-5 26 -1 37 5 13 3 25 -5 32 -9 9 -11 4 -9 -25z"/>
<path d="M3584 3210 c0 -13 4 -16 10 -10 7 7 7 13 0 20 -6 6 -10 3 -10 -10z"/>
<path d="M3939 3203 c-13 -16 -12 -17 4 -4 16 13 21 21 13 21 -2 0 -10 -8 -17
-17z"/>
<path d="M3616 3175 c-3 -8 -1 -15 4 -15 6 0 10 7 10 15 0 8 -2 15 -4 15 -2 0
-6 -7 -10 -15z"/>
<path d="M3682 3178 c2 -6 10 -13 16 -14 7 -1 8 0 2 3 -5 2 -8 9 -4 14 3 5 0
9 -6 9 -7 0 -10 -5 -8 -12z"/>
<path d="M3190 3169 c0 -5 5 -7 10 -4 6 3 10 8 10 11 0 2 -4 4 -10 4 -5 0 -10
-5 -10 -11z"/>
<path d="M3568 3145 c2 -14 8 -25 12 -25 10 0 1 38 -10 45 -4 2 -5 -7 -2 -20z"/>
<path d="M3265 3151 c-4 -8 -2 -16 5 -21 10 -6 9 -9 -1 -13 -10 -4 -9 -6 4 -6
18 -1 20 4 8 33 -6 15 -10 16 -16 7z"/>
<path d="M3610 3139 c0 -5 5 -7 10 -4 6 3 10 8 10 11 0 2 -4 4 -10 4 -5 0 -10
-5 -10 -11z"/>
<path d="M3722 3136 c7 -8 15 -12 17 -11 5 6 -10 25 -20 25 -5 0 -4 -6 3 -14z"/>
<path d="M3615 3110 c3 -5 8 -10 11 -10 2 0 4 5 4 10 0 6 -5 10 -11 10 -5 0
-7 -4 -4 -10z"/>
<path d="M3691 3104 c0 -11 3 -14 6 -6 3 7 2 16 -1 19 -3 4 -6 -2 -5 -13z"/>
<path d="M3220 3106 c0 -2 7 -7 16 -10 8 -3 12 -2 9 4 -6 10 -25 14 -25 6z"/>
<path d="M3566 3085 c-3 -8 -1 -15 4 -15 6 0 10 7 10 15 0 8 -2 15 -4 15 -2 0
-6 -7 -10 -15z"/>
<path d="M4296 3087 c3 -10 9 -15 12 -12 3 3 0 11 -7 18 -10 9 -11 8 -5 -6z"/>
<path d="M4382 3070 c0 -14 2 -19 5 -12 2 6 2 18 0 25 -3 6 -5 1 -5 -13z"/>
<path d="M3607 3033 c-4 -3 -7 -13 -7 -22 1 -13 3 -13 11 2 11 19 8 33 -4 20z"/>
<path d="M4680 2980 c-1 -25 -2 -49 -1 -55 1 -5 -7 0 -18 13 -23 26 -33 28
-24 5 6 -16 5 -16 -10 -4 -18 15 -66 24 -68 13 0 -4 -2 -16 -4 -27 -2 -11 -7
-59 -10 -108 -7 -109 -36 -163 -123 -226 -63 -45 -102 -90 -102 -116 0 -20 19
-19 81 5 28 12 54 18 57 16 2 -3 -3 -17 -12 -30 -9 -14 -16 -30 -16 -37 0 -6
-13 -27 -30 -46 -16 -18 -30 -40 -30 -49 0 -18 -44 -87 -87 -137 -18 -20 -33
-44 -33 -52 0 -15 -114 -95 -136 -95 -6 0 -17 -7 -24 -15 -10 -13 -9 -15 9
-15 11 0 21 -4 21 -10 0 -17 29 -11 88 20 31 17 64 34 72 39 8 5 23 12 33 15
10 3 25 20 35 37 9 17 34 47 55 67 20 19 37 42 37 51 0 9 11 38 25 65 14 27
25 55 25 61 0 7 9 20 20 30 11 10 20 23 20 29 0 6 5 28 11 49 10 37 10 37 38
22 24 -12 31 -12 47 0 16 11 20 31 24 114 5 87 9 103 29 125 23 24 23 26 13
158 -5 73 -10 113 -12 88z m-73 -231 c3 -63 7 -116 9 -118 2 -2 4 34 5 80 0
47 4 76 8 65 7 -17 8 -91 3 -188 -1 -21 -7 -38 -13 -38 -7 0 -10 12 -7 30 3
17 1 30 -4 30 -4 0 -8 -18 -8 -41 0 -28 -4 -39 -12 -36 -7 2 -11 11 -8 18 2 8
4 85 3 173 -2 186 16 204 24 25z m-147 -208 c0 -11 -26 -22 -34 -14 -12 12 -5
23 14 23 11 0 20 -4 20 -9z m64 -89 c-4 -18 -10 -32 -15 -32 -11 0 -11 1 2 39
14 40 21 35 13 -7z"/>
</g>
</svg>
